<svg xmlns="http://www.w3.org/2000/svg" width="41.958" height="41.958" viewBox="0 0 41.958 41.958"><g transform="translate(0 -0.001)"><g transform="translate(0 0.001)"><g transform="translate(0 0)"><path d="M28.562,13.4A14.3,14.3,0,1,0,13.4,28.564,14.3,14.3,0,1,0,28.562,13.4Zm-26.655.908a12.39,12.39,0,0,1,24.748-.9,14.206,14.206,0,0,0-7.638,2.878A3.241,3.241,0,0,0,17.5,12.9a3.324,3.324,0,0,0-2.241-5.225v-1a.954.954,0,0,0-1.907,0v.954H11.443a.954.954,0,0,0,0,1.907v7.629a.954.954,0,1,0,0,1.907H13.35v.954a.954.954,0,1,0,1.907,0v-.954h.477a3.312,3.312,0,0,0,.545-.055A14.206,14.206,0,0,0,13.4,26.657,12.4,12.4,0,0,1,1.907,14.306Zm13.827,0a1.43,1.43,0,1,1,0,2.861H13.35V14.306ZM13.35,12.4V9.538h1.43a1.43,1.43,0,0,1,0,2.861Zm14.3,27.654a12.4,12.4,0,1,1,12.4-12.4A12.411,12.411,0,0,1,27.654,40.053Z" transform="translate(0 -0.002)" fill="#8f8f8f"/><path d="M270,227.816h3.338a.954.954,0,0,0,0-1.907h-1.907v-.954a.954.954,0,1,0-1.907,0v1a3.33,3.33,0,0,0,.477,6.627h.954a1.43,1.43,0,1,1,0,2.861H267.62a.954.954,0,0,0,0,1.907h1.907v.954a.954.954,0,0,0,1.907,0v-1a3.33,3.33,0,0,0-.477-6.627H270a1.43,1.43,0,1,1,0-2.861Z" transform="translate(-242.826 -203.976)" fill="#8f8f8f"/><path d="M320.95,1.908c4.18.013,7.06,3.211,8.168,6.831L327.1,7.73a.954.954,0,1,0-.853,1.706l3.814,1.907a.954.954,0,0,0,1.279-.427L333.249,7.1a.954.954,0,1,0-1.706-.853l-.74,1.479C329.373,3.588,325.912.016,320.955,0h0a.954.954,0,0,0,0,1.907Z" transform="translate(-291.391 -0.001)" fill="#8f8f8f"/><path d="M12.531,350.807c-4.18-.014-7.06-3.211-8.168-6.831l2.017,1.009a.954.954,0,1,0,.853-1.706l-3.814-1.907a.956.956,0,0,0-1.28.427L.232,345.612a.954.954,0,0,0,1.706.853l.74-1.479c1.43,4.141,4.891,7.712,9.848,7.728h0a.954.954,0,0,0,0-1.907Z" transform="translate(-0.119 -310.762)" fill="#8f8f8f"/></g></g></g></svg>