<svg xmlns="http://www.w3.org/2000/svg" width="17.52" height="14.016" viewBox="0 0 17.52 14.016">
  <path id="store-alt-slash-solid" d="M.491,3.384l-.339.509A.876.876,0,0,0,.88,5.256H2.913Zm15.278,7.933V6.132H14.017V9.964l-3.5-2.71V6.132H9.06L7.927,5.256h8.718a.877.877,0,0,0,.728-1.363L15.039.389A.881.881,0,0,0,14.308,0H3.216a.872.872,0,0,0-.728.389L2.2.827,1.246.092A.438.438,0,0,0,.631.169L.094.861a.438.438,0,0,0,.077.615L16.277,13.924a.438.438,0,0,0,.615-.077l.538-.691a.438.438,0,0,0-.077-.615Zm-7.008-.805H3.505V6.132H1.753V13.14a.876.876,0,0,0,.876.876H9.637a.876.876,0,0,0,.876-.876V11.13L8.761,9.776Z" transform="translate(-0.001 0)" fill="#f9a826"/>
</svg>
