<svg xmlns="http://www.w3.org/2000/svg" width="44.979" height="44.979" viewBox="0 0 44.979 44.979"><g transform="translate(-0.003 0)"><g transform="translate(0.003 0)"><g transform="translate(0 0)"><path d="M42.937,22.678V16.357A4.08,4.08,0,0,0,39.174,12.3L33.3,2.046a4.046,4.046,0,0,0-5.55-1.5L7.627,12.268H4.092A4.093,4.093,0,0,0,0,16.357V40.89a4.093,4.093,0,0,0,4.089,4.089H38.848a4.093,4.093,0,0,0,4.089-4.089V34.569a3.062,3.062,0,0,0,2.044-2.878V25.557A3.062,3.062,0,0,0,42.937,22.678ZM36.8,12.268h-8.91L34.57,8.377ZM33.555,6.6l-9.73,5.665H19.789L32.546,4.84ZM28.781,2.318a1.977,1.977,0,0,1,1.518-.2,2,2,0,0,1,1.228.949l0,0-15.8,9.2H11.69ZM40.893,40.89a2.047,2.047,0,0,1-2.044,2.044H4.092A2.047,2.047,0,0,1,2.048,40.89V16.357a2.047,2.047,0,0,1,2.044-2.044H38.848a2.047,2.047,0,0,1,2.044,2.044V22.49H34.759a6.133,6.133,0,1,0,0,12.267h6.133V40.89Zm2.045-9.2a1.023,1.023,0,0,1-1.022,1.022H34.759a4.089,4.089,0,1,1,0-8.178h7.156a1.023,1.023,0,0,1,1.022,1.022Z" transform="translate(-0.003 0)" fill="#8f8f8f"/><path d="M343.381,277.341a2.044,2.044,0,1,0,2.044,2.044A2.047,2.047,0,0,0,343.381,277.341Z" transform="translate(-308.625 -250.762)" fill="#8f8f8f"/></g></g></g></svg>