<svg xmlns="http://www.w3.org/2000/svg" width="37.85" height="37.85" viewBox="0 0 37.85 37.85"><path d="M45.85,26.925A18.925,18.925,0,1,1,26.925,8,18.925,18.925,0,0,1,45.85,26.925Zm-10.809-2.7c.377-2.518-1.541-3.872-4.163-4.775l.851-3.411-2.077-.517-.828,3.321c-.546-.136-1.107-.264-1.664-.391l.834-3.343-2.075-.517L25.067,18c-.452-.1-.9-.2-1.326-.312l0-.011-2.864-.715-.552,2.218s1.541.353,1.508.375a1.1,1.1,0,0,1,.968,1.208l-.969,3.886a1.722,1.722,0,0,1,.216.069l-.219-.054-1.358,5.444a.756.756,0,0,1-.952.493c.021.03-1.509-.377-1.509-.377l-1.031,2.377,2.7.674c.5.126,1,.258,1.48.382l-.859,3.45,2.074.517.851-3.414q.825.224,1.655.429l-.848,3.4,2.077.517.859-3.444c3.541.67,6.2.4,7.325-2.8.9-2.579-.045-4.066-1.908-5.036a3.311,3.311,0,0,0,2.652-3.048ZM30.3,30.881c-.642,2.579-4.984,1.185-6.391.835l1.14-4.571C26.452,27.5,30.966,28.192,30.3,30.881Zm.642-6.69c-.586,2.345-4.2,1.154-5.372.862L26.6,20.908C27.772,21.2,31.548,21.745,30.938,24.192Z" transform="translate(-8 -8)" fill="#f9a826"/></svg>