<svg xmlns="http://www.w3.org/2000/svg" width="33.355" height="33.355" viewBox="0 0 33.355 33.355"><path d="M25.01,10.775a19.174,19.174,0,0,0-.3-3.411H9v6.451h8.975a7.672,7.672,0,0,1-3.328,5.034v4.184h5.39A16.265,16.265,0,0,0,25.01,10.775Z" transform="translate(7.677 6.282)" fill="#4285f4" fill-rule="evenodd"/><path d="M15.861,24.219A15.922,15.922,0,0,0,26.9,20.178l-5.39-4.184a10.024,10.024,0,0,1-5.648,1.592A9.939,9.939,0,0,1,6.529,10.71H.957v4.321a16.671,16.671,0,0,0,14.9,9.188Z" transform="translate(0.817 9.136)" fill="#34a853" fill-rule="evenodd"/><path d="M7.346,15.617a9.86,9.86,0,0,1,0-6.337V4.958H1.774a16.7,16.7,0,0,0,0,14.979l5.572-4.321Z" transform="translate(0 4.23)" fill="#fbbc05" fill-rule="evenodd"/><path d="M15.861,6.633a9.01,9.01,0,0,1,6.375,2.494L27.02,4.344A16.028,16.028,0,0,0,15.861,0,16.671,16.671,0,0,0,.957,9.188l5.572,4.321a9.939,9.939,0,0,1,9.332-6.876Z" transform="translate(0.817)" fill="#ea4335" fill-rule="evenodd"/><path d="M0,0H33.355V33.355H0Z" fill="none" fill-rule="evenodd"/></svg>