<svg xmlns="http://www.w3.org/2000/svg" width="427" height="415.949" viewBox="0 0 427 415.949"><ellipse cx="209.5" cy="182" rx="209.5" ry="182" transform="translate(8 51.949)" fill="rgba(249,168,38,0.11)"/><path d="M197.411,390.175c-7.827,6.4,4.981,62.619,4.981,62.619s2.846,85.746,8.895,89.66,19.569-.356,24.905-1.067.712-53.725-7.116-73.293-1.779-48.032-1.779-48.032l42.339,8.183s-25.617,21.7-24.55,26.329,28.463,20.28,33.444,20.992,14.587-28.463,23.126-48.388-58.35-32.733-58.35-32.733l-9.251-17.434S205.239,383.771,197.411,390.175Z" transform="translate(-159.199 -262.476)" fill="#2f2e41"/><path d="M248.212,744.369s-2.582,9.036,0,9.036,7.315,2.582,14.63,1.721,5.164-9.9,0-11.188-3.873-11.618-3.873-11.618c-1.721-3.443-9.9.861-9.9.861Z" transform="translate(-188.75 -462.915)" fill="#2f2e41"/><path d="M330.713,581.077s-4.429,8.289-1.906,8.833,6.606,4.067,13.938,4.768,7.135-8.585,2.359-10.936-1.335-12.174-1.335-12.174c-.957-3.728-9.856-1.246-9.856-1.246Z" transform="translate(-234.597 -371.48)" fill="#2f2e41"/><path d="M208.542,229.365c.712,1.423-2.491,19.213-2.491,19.213l2.846,4.981s16.366-6.4,13.876-7.472-2.135-14.232-2.135-14.232S207.83,227.942,208.542,229.365Z" transform="translate(-165.526 -178.695)" fill="#ffb9b9"/><ellipse cx="21.815" cy="21.815" rx="21.815" ry="21.815" transform="translate(27.361 12.524)" fill="#2f2e41"/><ellipse cx="9.027" cy="9.027" rx="9.027" ry="9.027" transform="translate(38.644 4.889)" fill="#2f2e41"/><path d="M231.631,130.958a9.134,9.134,0,0,0,.94.049,9.027,9.027,0,1,0,0-18.054,9.119,9.119,0,0,0-.94.049,9.027,9.027,0,0,1,0,17.956Z" transform="translate(-180.011 -112.953)" fill="#2f2e41"/><ellipse cx="14.943" cy="14.943" rx="14.943" ry="14.943" transform="translate(34.832 30.034)" fill="#ffb9b9"/><path d="M161.494,263.861c-4.625,1.067-12.453,12.453-12.453,12.453l12.453,12.453s8.895,33.444,9.962,34.868c6.993,9.324,38.426-11.385,38.426-11.385s-1.245-10.14-.534-15.121c.684-4.791-2.668-14.41-2.668-14.41s11.741-4.981,9.251-9.962-17.79-16.366-24.194-12.453-19.213,0-19.213,0A100.492,100.492,0,0,1,161.494,263.861Z" transform="translate(-133.244 -195.935)" fill="#e6e6e6"/><path d="M387.331,432.053s20.28,17.434,25.261,13.876-19.213-16.011-19.213-16.011Z" transform="translate(-268.176 -292.435)" fill="#ffb9b9"/><path d="M176.194,408.32c2.846,3.2,16.366-4.981,14.633-8.615s-12.5,3.634-12.5,3.634S173.348,405.118,176.194,408.32Z" transform="translate(-148.122 -274.75)" fill="#ffb9b9"/><path d="M140.871,298.136l-14.943,27.752s17.078,14.232,19.213,14.587-4.27,9.606-4.27,9.606-19.213-13.52-26.684-20.28,14.232-36.647,14.232-36.647l6.4-3.914Z" transform="translate(-112.622 -212.776)" fill="#e6e6e6"/><path d="M277.825,295.211l17.434,27.04s26.684,29.887,30.242,31.31,7.827-5.337,7.827-5.337l-32.021-38.781-12.1-21.7-4.625-1.779Z" transform="translate(-206.168 -210.919)" fill="#e6e6e6"/><ellipse cx="15.045" cy="9.027" rx="15.045" ry="9.027" transform="translate(34.131 18.196)" fill="#2f2e41"/><path d="M320.871,624.742a1.862,1.862,0,0,0-1.86,1.86v63.433a1.862,1.862,0,0,0,1.86,1.86h216.3a1.862,1.862,0,0,0,1.86-1.86V626.6a1.862,1.862,0,0,0-1.86-1.86Z" transform="translate(-229.49 -402.754)" fill="#e6e6e6"/><path d="M329.757,693.319H540.452V635.487H329.757Z" transform="translate(-235.575 -408.838)" fill="#fff"/><path d="M750.174,741.157a3.081,3.081,0,1,0,0,6.161H762.5a3.081,3.081,0,1,0,0-6.161Z" transform="translate(-471.892 -468.674)" fill="#f9a826"/><rect width="142.254" height="0.811" transform="translate(151.431 266.507)" fill="#e6e6e6"/><ellipse cx="17.944" cy="17.944" rx="17.944" ry="17.944" transform="translate(103.752 237.621)" fill="#f9a826"/><path d="M349.053,565.062l-.449-.674,14.782-9.855,10.137,4.866,14.581-9.315,29,12.372,23.1-11.346,22.428,9.093,28.182-24.961.537.607-28.558,25.295L440.236,552l-23.105,11.35L388.179,551l-14.6,9.328-10.128-4.861Z" transform="translate(-197.397 -303.081)" fill="#3f3d56"/><path d="M464.379,742.134a2.634,2.634,0,0,0,0,5.269h27.559a2.634,2.634,0,0,0,0-5.269Z" transform="translate(-310.313 -469.227)" fill="#e6e6e6"/><path d="M387.388,683.645h2.8l-5.834,5.774a5.447,5.447,0,0,1-7.648,0l-5.833-5.774h2.8l4.432,4.386a3.45,3.45,0,0,0,4.844,0ZM373.645,699.7h-2.8l5.87-5.809a5.447,5.447,0,0,1,7.647,0l5.87,5.809h-2.8l-4.468-4.422a3.45,3.45,0,0,0-4.844,0Z" transform="translate(-258.839 -436.108)" fill="#fff"/><path d="M385.806,156.307a1.862,1.862,0,0,0-1.86,1.86V221.6a1.862,1.862,0,0,0,1.86,1.86H602.1a1.862,1.862,0,0,0,1.86-1.86V158.167a1.862,1.862,0,0,0-1.86-1.86Z" transform="translate(-266.26 -137.502)" fill="#e6e6e6"/><path d="M394.692,224.884H605.387V167.052H394.692Z" transform="translate(-272.344 -143.587)" fill="#fff"/><path d="M815.11,272.722a3.081,3.081,0,0,0,0,6.162h12.323a3.081,3.081,0,1,0,0-6.162Z" transform="translate(-508.662 -203.422)" fill="#f9a826"/><rect width="142.254" height="0.811" transform="translate(179.597 63.324)" fill="#e6e6e6"/><ellipse cx="17.944" cy="17.944" rx="17.944" ry="17.944" transform="translate(131.917 34.437)" fill="#f9a826"/><path d="M413.988,96.626l-.449-.674L428.321,86.1l10.137,4.866,14.58-9.315.2.084L482.042,94.02l23.1-11.346,22.428,9.093L555.749,66.8l.537.607L527.729,92.706l-22.558-9.145-23.1,11.35-28.952-12.35-14.6,9.328-10.128-4.861Z" transform="translate(-234.167 -37.829)" fill="#3f3d56"/><path d="M529.314,273.7a2.634,2.634,0,0,0,0,5.269h27.559a2.634,2.634,0,1,0,0-5.269Z" transform="translate(-347.083 -203.976)" fill="#e6e6e6"/><path d="M453.747,217.672c.335-2.245-1.374-3.453-3.712-4.258l.758-3.042-1.852-.461-.738,2.962c-.486-.121-.986-.236-1.483-.349l.744-2.981-1.85-.461-.759,3.041c-.4-.092-.8-.182-1.182-.278l0-.009-2.553-.638-.493,1.978s1.374.315,1.345.334a.985.985,0,0,1,.863,1.077l-.864,3.465a1.527,1.527,0,0,1,.192.062l-.2-.049-1.211,4.854a.674.674,0,0,1-.848.44c.018.027-1.346-.336-1.346-.336l-.919,2.12,2.41.6c.448.112.888.23,1.319.341l-.766,3.077,1.849.461.759-3.044c.5.137,1,.264,1.475.383l-.756,3.03,1.852.461.766-3.071c3.157.6,5.532.357,6.53-2.5.805-2.3-.04-3.626-1.7-4.491a2.955,2.955,0,0,0,2.364-2.72Zm-4.231,5.932c-.573,2.3-4.444,1.057-5.7.745l1.017-4.076c1.255.313,5.279.933,4.683,3.331Zm.572-5.965c-.522,2.091-3.744,1.029-4.79.768l.922-3.7c1.046.261,4.412.747,3.868,2.929Z" transform="translate(-296.666 -167.386)" fill="#fff"/><path d="M581.993,390.524a1.862,1.862,0,0,0-1.86,1.86v63.434a1.862,1.862,0,0,0,1.86,1.86h216.3a1.862,1.862,0,0,0,1.86-1.86V392.384a1.862,1.862,0,0,0-1.86-1.86Z" transform="translate(-377.351 -270.128)" fill="#e6e6e6"/><path d="M590.878,459.1h210.7V401.27h-210.7Z" transform="translate(-383.435 -276.213)" fill="#fff"/><path d="M1011.3,506.94a3.081,3.081,0,0,0,0,6.161h12.323a3.081,3.081,0,1,0,0-6.161Z" transform="translate(-619.754 -336.049)" fill="#f9a826"/><rect width="142.254" height="0.811" transform="translate(264.693 164.915)" fill="#e6e6e6"/><ellipse cx="17.944" cy="17.944" rx="17.944" ry="17.944" transform="translate(217.013 136.029)" fill="#f9a826"/><path d="M610.175,330.844l-.45-.675,14.782-9.855,10.137,4.866,14.58-9.315.2.084,28.806,12.288,23.1-11.346,22.428,9.092,28.182-24.961.537.607-28.558,25.294-22.558-9.145-23.105,11.35L649.3,316.779l-14.6,9.328-10.127-4.861Z" transform="translate(-345.257 -170.455)" fill="#3f3d56"/><path d="M725.5,507.917a2.634,2.634,0,1,0,0,5.269h27.559a2.634,2.634,0,0,0,0-5.269Z" transform="translate(-458.173 -336.602)" fill="#e6e6e6"/><path d="M532.207,368.892l7.264-10.23-7.264,4.289h0l-7.26-4.289,7.259,10.23h0Z" transform="translate(-297.252 -203.093)" fill="#fff"/><path d="M532.206,344.054h0l7.26-4.291-7.26-12.046h0l-7.259,12.046Z" transform="translate(-297.252 -185.57)" fill="#fff"/></svg>